<svg xmlns="http://www.w3.org/2000/svg" viewBox="0 0 120 32" role="img" aria-label="Playwright">
  <path d="M8 8c0-2.2 3.6-4 8-4s8 1.8 8 4v16c0 2.2-3.6 4-8 4s-8-1.8-8-4V8z" fill="#2EAD33"/>
  <circle cx="16" cy="14" r="2.2" fill="#0B1420"/>
  <path d="M13.5 18.5c1 1.2 2.2 1.8 2.5 1.8s1.5-.6 2.5-1.8" stroke="#0B1420" stroke-width="1.4" stroke-linecap="round" fill="none"/>
  <path d="M36 8c0-2.2 3.6-4 8-4s8 1.8 8 4v16c0 2.2-3.6 4-8 4s-8-1.8-8-4V8z" fill="#E2574C"/>
  <circle cx="44" cy="14" r="2.2" fill="#0B1420"/>
  <path d="M41.5 18.5c1 1.2 2.2 1.8 2.5 1.8s1.5-.6 2.5-1.8" stroke="#0B1420" stroke-width="1.4" stroke-linecap="round" fill="none"/>
  <text x="62" y="21" fill="#EAEAEA" font-family="Segoe UI, sans-serif" font-size="14" font-weight="700">Playwright</text>
</svg>
